HIERARCHY
ROOT hip
{
  OFFSET -139.549 83.6629 31.6329
  CHANNELS 6 Xposition Yposition Zposition Zrotation Xrotation Yrotation
  JOINT abdomen
  {
    OFFSET 0 20.6881 -0.73152
    CHANNELS 3 Zrotation Xrotation Yrotation
    JOINT chest
    {
      OFFSET 0 11.7043 -0.48768
      CHANNELS 3 Zrotation Xrotation Yrotation
      JOINT neck
      {
        OFFSET 0 22.1894 -2.19456
        CHANNELS 3 Zrotation Xrotation Yrotation
        JOINT head
        {
          OFFSET -0.24384 7.07133 1.2192
          CHANNELS 3 Zrotation Xrotation Yrotation
          JOINT leftEye
          {
            OFFSET 4.14528 8.04674 8.04672
            CHANNELS 3 Zrotation Xrotation Yrotation
            End Site
            {
              OFFSET 1 0 0
            }
          }
          JOINT rightEye
          {
            OFFSET -3.6576 8.04674 8.04672
            CHANNELS 3 Zrotation Xrotation Yrotation
            End Site
            {
              OFFSET 1 0 0
            }
          }
        }
      }
      JOINT rCollar
      {
        OFFSET -2.68224 19.2634 -4.8768
        CHANNELS 3 Zrotation Xrotation Yrotation
        JOINT rShldr
        {
          OFFSET -8.77824 -1.95073 1.46304
          CHANNELS 3 Zrotation Xrotation Yrotation
          JOINT rForeArm
          {
            OFFSET -28.1742 -1.7115 0.48768
            CHANNELS 3 Zrotation Xrotation Yrotation
            JOINT rHand
            {
              OFFSET -22.5879 0.773209 7.07136
              CHANNELS 3 Zrotation Xrotation Yrotation
              JOINT rThumb1
              {
                OFFSET -1.2192 -0.487915 3.41376
                CHANNELS 3 Zrotation Xrotation Yrotation
                JOINT rThumb2
                {
                  OFFSET -3.37035 -0.52449 3.41376
                  CHANNELS 3 Zrotation Xrotation Yrotation
                  End Site
                  {
                    OFFSET -1.78271 -1.18214 1.43049
                  }
                }
              }
              JOINT rIndex1
              {
                OFFSET -7.75947 0.938293 5.60832
                CHANNELS 3 Zrotation Xrotation Yrotation
                JOINT rIndex2
                {
                  OFFSET -2.54057 -0.884171 1.56538
                  CHANNELS 3 Zrotation Xrotation Yrotation
                  End Site
                  {
                    OFFSET -1.62519 -0.234802 1.16502
                  }
                }
              }
              JOINT rMid1
              {
                OFFSET -8.24714 1.18213 3.41376
                CHANNELS 3 Zrotation Xrotation Yrotation
                JOINT rMid2
                {
                  OFFSET -3.10165 -0.590103 1.0647
                  CHANNELS 3 Zrotation Xrotation Yrotation
                  End Site
                  {
                    OFFSET -2.48547 -0.328903 0.83742
                  }
                }
              }
              JOINT rRing1
              {
                OFFSET -8.82822 0.546677 1.51678
                CHANNELS 3 Zrotation Xrotation Yrotation
                JOINT rRing2
                {
                  OFFSET -2.60934 -0.819778 -0.0198488
                  CHANNELS 3 Zrotation Xrotation Yrotation
                  End Site
                  {
                    OFFSET -2.33842 -0.294052 0.168128
                  }
                }
              }
              JOINT rPinky1
              {
                OFFSET -8.27202 -0.0477905 -0.4584
                CHANNELS 3 Zrotation Xrotation Yrotation
                JOINT rPinky2
                {
                  OFFSET -1.82734 -0.647385 -0.700984
                  CHANNELS 3 Zrotation Xrotation Yrotation
                  End Site
                  {
                    OFFSET -1.69225 -0.51767 -0.607171
                  }
                }
              }
            }
          }
        }
      }
      JOINT lCollar
      {
        OFFSET 2.68224 19.2634 -4.8768
        CHANNELS 3 Zrotation Xrotation Yrotation
        JOINT lShldr
        {
          OFFSET 8.77824 -1.95073 1.46304
          CHANNELS 3 Zrotation Xrotation Yrotation
          JOINT lForeArm
          {
            OFFSET 28.1742 -1.7115 0.48768
            CHANNELS 3 Zrotation Xrotation Yrotation
            JOINT lHand
            {
              OFFSET 22.5879 0.773209 7.07136
              CHANNELS 3 Zrotation Xrotation Yrotation
              JOINT lThumb1
              {
                OFFSET 1.2192 -0.487915 3.41376
                CHANNELS 3 Zrotation Xrotation Yrotation
                JOINT lThumb2
                {
                  OFFSET 3.37035 -0.52449 3.41376
                  CHANNELS 3 Zrotation Xrotation Yrotation
                  End Site
                  {
                    OFFSET 1.78271 -1.18214 1.43049
                  }
                }
              }
              JOINT lIndex1
              {
                OFFSET 7.75947 0.938293 5.60832
                CHANNELS 3 Zrotation Xrotation Yrotation
                JOINT lIndex2
                {
                  OFFSET 2.54057 -0.884171 1.56538
                  CHANNELS 3 Zrotation Xrotation Yrotation
                  End Site
                  {
                    OFFSET 1.62519 -0.234802 1.16502
                  }
                }
              }
              JOINT lMid1
              {
                OFFSET 8.24714 1.18213 3.41376
                CHANNELS 3 Zrotation Xrotation Yrotation
                JOINT lMid2
                {
                  OFFSET 3.10165 -0.590103 1.0647
                  CHANNELS 3 Zrotation Xrotation Yrotation
                  End Site
                  {
                    OFFSET 2.48547 -0.328903 0.83742
                  }
                }
              }
              JOINT lRing1
              {
                OFFSET 8.82822 0.546677 1.51678
                CHANNELS 3 Zrotation Xrotation Yrotation
                JOINT lRing2
                {
                  OFFSET 2.60934 -0.819778 -0.0198488
                  CHANNELS 3 Zrotation Xrotation Yrotation
                  End Site
                  {
                    OFFSET 2.33842 -0.294052 0.168128
                  }
                }
              }
              JOINT lPinky1
              {
                OFFSET 8.27202 -0.0477905 -0.4584
                CHANNELS 3 Zrotation Xrotation Yrotation
                JOINT lPinky2
                {
                  OFFSET 1.82734 -0.647385 -0.700984
                  CHANNELS 3 Zrotation Xrotation Yrotation
                  End Site
                  {
                    OFFSET 1.69225 -0.51767 -0.607171
                  }
                }
              }
            }
          }
        }
      }
    }
  }
  JOINT rButtock
  {
    OFFSET -8.77824 4.35084 1.2192
    CHANNELS 3 Zrotation Xrotation Yrotation
    JOINT rThigh
    {
      OFFSET 0 -1.70687 -2.19456
      CHANNELS 3 Zrotation Xrotation Yrotation
      JOINT rShin
      {
        OFFSET 0 -36.8199 0.73152
        CHANNELS 3 Zrotation Xrotation Yrotation
        JOINT rFoot
        {
          OFFSET 0.73152 -45.1104 -5.12064
          CHANNELS 3 Zrotation Xrotation Yrotation
          End Site
          {
            OFFSET -1.1221 -3.69964 12.103
          }
        }
      }
    }
  }
  JOINT lButtock
  {
    OFFSET 8.77824 4.35084 1.2192
    CHANNELS 3 Zrotation Xrotation Yrotation
    JOINT lThigh
    {
      OFFSET 0 -1.70687 -2.19456
      CHANNELS 3 Zrotation Xrotation Yrotation
      JOINT lShin
      {
        OFFSET 0 -36.8199 0.73152
        CHANNELS 3 Zrotation Xrotation Yrotation
        JOINT lFoot
        {
          OFFSET -0.73152 -45.1104 -5.12064
          CHANNELS 3 Zrotation Xrotation Yrotation
          End Site
          {
            OFFSET 1.1221 -3.69964 12.103
          }
        }
      }
    }
  }
}
MOTION
Frames:	8
Frame Time:	0.00833333
-150.07 85.1731 25.6634 -0.389722 -0.00134231 0.00664153 0.512931 -0.00341812 0.0146931 0.141686 -0.00540195 0.0245503 2.25003e-015 -1.59028e-015 -6.21201e-018 6.86739e-015 -6.36111e-015 -3.10601e-017 -0 0 0 -0 0 0 1.19136e-015 -1.04828e-017 2.48481e-016 2.58217e-014 -4.96962e-017 5.96354e-016 4.13571e-013 -1.33186e-013 -1.59028e-014 4.75618e-012 7.66066e-014 -2.22639e-014 1.1215e-011 -1.27252e-013 -4.45278e-014 1.93616e-011 -2.19458e-013 -8.18993e-014 1.12198e-011 -1.25234e-013 -5.08889e-014 7.73091 5.47488 0.417314 1.1215e-011 -1.27123e-013 -4.13472e-014 2.90554 0.965183 0.102902 1.1223e-011 -1.27222e-013 -4.37326e-014 10.2786 0.731801 0.0259123 1.12103e-011 -1.26427e-013 -3.49861e-014 2.22167 -0.733487 -0.20892 1.09474e-015 -1.04828e-017 -2.48481e-016 2.18958e-014 -3.41661e-016 -5.96354e-016 4.1546e-013 1.14898e-013 1.59028e-014 4.75957e-012 -1.72073e-013 -2.54444e-014 1.12308e-011 -1.2622e-013 -3.81667e-014 1.94018e-011 -2.22639e-013 -6.59965e-014 1.12266e-011 -1.24439e-013 -2.54444e-014 -7.73091 5.47488 -0.417314 1.12312e-011 -1.2593e-013 -3.81667e-014 -2.90554 0.965183 -0.102902 1.12228e-011 -1.25632e-013 -4.29375e-014 -10.2786 0.731801 -0.0259123 1.12345e-011 -1.25234e-013 -5.08889e-014 -2.22167 -0.733487 0.20892 -2.03217e-016 0 -3.88251e-019 0.860025 -4.41146 -0.0729711 -0.00213136 2.43941 -0.0112544 -0.47446 1.97259 0.0938401 2.03217e-016 0 3.88251e-019 -0.0776745 -2.42096 0.023254 0.00766769 -1.16603 0.0659986 0.465762 3.58744 -0.125214 
-150.574 84.3926 11.0397 -1.7272 -0.714102 -48.6718 0.0964048 2.55316 0.742688 -0.0352992 0.400986 0.286908 1.77921 2.80169 1.00055 -1.94747 -6.99536 1.38827 -0 0 0 -0 0 0 -1.81546e-015 -7.06891e-015 -4.27472e-014 22.9771 4.76664 0.0642581 -5.26766 -2.64721 7.93341 0.0457775 -4.74905 -0.659181 4.20494e-010 -6.1494e-010 -5.29918e-011 7.28529e-010 -1.06451e-009 -8.69191e-011 4.20498e-010 -6.14938e-010 -5.2998e-011 7.73091 5.47488 0.417314 4.20494e-010 -6.14939e-010 -5.29906e-011 2.90554 0.965183 0.102902 4.20501e-010 -6.14939e-010 -5.29929e-011 10.2786 0.731801 0.0259123 4.20489e-010 -6.14938e-010 -5.2986e-011 2.22167 -0.733487 -0.20892 -1.87769e-015 -7.07243e-015 -4.31502e-014 -21.4744 6.40206 -2.54902 5.33944 -2.69988 -8.02191 -0.000186869 0.427361 -0.060064 3.84347e-010 5.18603e-010 -1.11362e-010 6.64018e-010 8.96166e-010 -1.941e-010 3.84343e-010 5.18605e-010 -1.11349e-010 -7.73091 5.47488 -0.417314 3.84344e-010 5.18601e-010 -1.1136e-010 -2.90554 0.965183 -0.102902 3.8434e-010 5.18605e-010 -1.11365e-010 -10.2786 0.731801 -0.0259123 3.8435e-010 5.18606e-010 -1.1137e-010 -2.22167 -0.733487 0.20892 -2.03217e-016 0 -3.88251e-019 2.66476 -5.14292 4.04237 0.0397879 9.31391 0.169388 -1.75038 -4.84545 -8.02977 2.03217e-016 0 3.88251e-019 -0.940722 -3.21362 -5.2314 -0.0338019 6.25226 -0.117947 1.4048 -2.60257 7.19577 
-150.586 84.3891 11.0482 -3.65537 0.390278 -100.106 -0.419349 5.26035 1.52572 -0.230963 0.826871 0.566787 3.57015 5.77133 2.06494 -3.65715 -14.3987 2.91572 -0 0 0 -0 0 0 -5.13088e-015 -1.48599e-014 -9.02296e-014 47.2532 9.79927 0.141667 -10.0437 -5.27368 16.3689 -0.026245 -9.76994 -1.37161 8.77109e-010 -1.29773e-009 -1.07534e-010 1.51965e-009 -2.24641e-009 -1.7596e-010 8.77113e-010 -1.29773e-009 -1.0754e-010 7.73091 5.47488 0.417314 8.77109e-010 -1.29773e-009 -1.07535e-010 2.90554 0.965183 0.102902 8.77114e-010 -1.29773e-009 -1.07537e-010 10.2786 0.731801 0.0259123 8.77103e-010 -1.29773e-009 -1.07532e-010 2.22167 -0.733487 -0.20892 -5.15652e-015 -1.48675e-014 -9.0534e-014 -43.5371 13.0992 -5.32154 10.1902 -5.39386 -16.5892 0.000697535 0.84441 -0.118696 7.98264e-010 1.09114e-009 -2.37675e-010 1.37909e-009 1.88549e-009 -4.14224e-010 7.98261e-010 1.09114e-009 -2.37661e-010 -7.73091 5.47488 -0.417314 7.98258e-010 1.09113e-009 -2.3767e-010 -2.90554 0.965183 -0.102902 7.98259e-010 1.09114e-009 -2.37676e-010 -10.2786 0.731801 -0.0259123 7.98267e-010 1.09114e-009 -2.37676e-010 -2.22167 -0.733487 0.20892 -2.03217e-016 0 -3.88251e-019 4.68355 -5.88111 8.40661 0.0350243 16.5838 0.371143 -5.20753 -11.6346 -16.9132 2.03217e-016 0 3.88251e-019 -2.01431 -4.00509 -10.7931 -0.0245737 14.0917 -0.320544 4.11557 -8.87224 15.1114 
-150.617 84.3886 11.0503 -3.77943 2.68705 -145.971 -0.932997 7.66129 2.21626 -0.400437 1.21366 0.811784 5.04152 8.39477 3.03057 -4.76535 -20.935 4.42655 -0 0 0 -0 0 0 -7.82909e-015 -2.11858e-014 -1.28739e-013 68.8983 14.2998 0.19825 -13.659 -7.33389 23.983 -0.199262 -14.2395 -2.03325 1.23905e-009 -1.84456e-009 -1.58886e-010 2.14686e-009 -3.1931e-009 -2.60593e-010 1.23906e-009 -1.84456e-009 -1.58892e-010 7.73091 5.47488 0.417314 1.23905e-009 -1.84456e-009 -1.58889e-010 2.90554 0.965183 0.102902 1.23906e-009 -1.84456e-009 -1.58891e-010 10.2786 0.731801 0.0259123 1.23905e-009 -1.84456e-009 -1.58888e-010 2.22167 -0.733487 -0.20892 -7.82254e-015 -2.11963e-014 -1.28954e-013 -62.6359 19.0496 -8.04247 13.8084 -7.46589 -24.2575 0.00212801 1.28208 -0.180232 1.13058e-009 1.55606e-009 -3.34011e-010 1.95325e-009 2.68894e-009 -5.82169e-010 1.13058e-009 1.55606e-009 -3.33995e-010 -7.73091 5.47488 -0.417314 1.13057e-009 1.55606e-009 -3.34002e-010 -2.90554 0.965183 -0.102902 1.13057e-009 1.55607e-009 -3.34009e-010 -10.2786 0.731801 -0.0259123 1.13058e-009 1.55607e-009 -3.34007e-010 -2.22167 -0.733487 0.20892 -2.03217e-016 0 -3.88251e-019 6.58693 -6.4928 12.3039 -0.0162535 23.062 0.569465 -10.1233 -16.9373 -25.3627 2.03217e-016 0 3.88251e-019 -3.09629 -4.65788 -15.7694 0.0339453 21.0881 -0.518426 8.01701 -13.9445 22.513 
-150.676 84.3931 11.0423 -2.4709 3.9472 -178.044 -1.29786 9.30171 2.65818 -0.496542 1.50279 0.969423 5.9251 10.1626 3.72136 -5.14398 -25.3505 5.6481 -0 0 0 -0 0 0 -8.98431e-015 -2.38485e-014 -1.44815e-013 83.9963 17.4704 0.196012 -15.8564 -8.55442 29.37 -0.383469 -17.3379 -2.5147 1.36432e-009 -2.05148e-009 -2.02264e-010 2.36432e-009 -3.55179e-009 -3.34206e-010 1.36432e-009 -2.05148e-009 -2.02271e-010 7.73091 5.47488 0.417314 1.36432e-009 -2.05148e-009 -2.02267e-010 2.90554 0.965183 0.102902 1.36432e-009 -2.05148e-009 -2.0227e-010 10.2786 0.731801 0.0259123 1.36431e-009 -2.05148e-009 -2.02267e-010 2.22167 -0.733487 -0.20892 -8.95653e-015 -2.38596e-014 -1.44964e-013 -75.5636 23.2718 -10.278 15.9132 -8.60688 -29.4896 0.00384947 1.77129 -0.249018 1.25889e-009 1.75195e-009 -3.55402e-010 2.17512e-009 3.0277e-009 -6.19663e-010 1.25889e-009 1.75195e-009 -3.55386e-010 -7.73091 5.47488 -0.417314 1.25888e-009 1.75194e-009 -3.55392e-010 -2.90554 0.965183 -0.102902 1.25889e-009 1.75195e-009 -3.55399e-010 -10.2786 0.731801 -0.0259123 1.25889e-009 1.75196e-009 -3.55395e-010 -2.22167 -0.733487 0.20892 -2.03217e-016 0 -3.88251e-019 7.98173 -6.8798 15.0102 -0.0818206 27.5617 0.723568 -14.5624 -20.0233 -31.635 2.03217e-016 0 3.88251e-019 -3.90255 -5.08253 -19.2598 0.106944 25.9777 -0.672333 11.5475 -17.0601 27.9066 
-150.711 84.3961 11.0348 -1.74703 4.14845 169.287 -1.38187 9.87297 2.723 -0.475176 1.66292 0.999819 6.02511 10.7088 4.01378 -4.79832 -26.78 6.31068 -0 0 0 -0 0 0 -6.56239e-015 -1.9054e-014 -1.25913e-013 89.9454 18.8116 0.085516 -16.6934 -9.01386 31.5954 -0.469853 -18.5358 -2.70718 1.10303e-009 -1.70545e-009 -2.55512e-010 1.91286e-009 -2.95426e-009 -4.29413e-010 1.10303e-009 -1.70545e-009 -2.55519e-010 7.73091 5.47488 0.417314 1.10303e-009 -1.70545e-009 -2.55513e-010 2.90554 0.965183 0.102902 1.10303e-009 -1.70545e-009 -2.55517e-010 10.2786 0.731801 0.0259123 1.10302e-009 -1.70544e-009 -2.55514e-010 2.22167 -0.733487 -0.20892 -6.531e-015 -1.90612e-014 -1.26025e-013 -80.472 25.1994 -11.579 16.5344 -8.86933 -31.236 0.00631856 2.34566 -0.329821 1.05724e-009 1.53869e-009 -2.41217e-010 1.82732e-009 2.66e-009 -4.21307e-010 1.05723e-009 1.5387e-009 -2.41201e-010 -7.73091 5.47488 -0.417314 1.05723e-009 1.53869e-009 -2.41208e-010 -2.90554 0.965183 -0.102902 1.05723e-009 1.5387e-009 -2.41215e-010 -10.2786 0.731801 -0.0259123 1.05724e-009 1.5387e-009 -2.41212e-010 -2.22167 -0.733487 0.20892 -2.03217e-016 0 -3.88251e-019 8.57837 -7.00171 16.0386 -0.114137 29.2872 0.788803 -16.5659 -21.1081 -34.2233 2.03217e-016 0 3.88251e-019 -4.1921 -5.26224 -20.6672 0.144069 27.9219 -0.738395 13.1038 -18.2296 30.0026 
-150.719 84.3929 11.0375 -1.91184 4.12572 170.511 -1.25379 9.68159 2.51638 -0.369517 1.73054 0.939522 5.59015 10.3859 4.01597 -4.05233 -26.0915 6.51006 -0 0 0 -0 0 0 -1.65284e-015 -9.04361e-015 -8.21975e-014 89.3594 18.8445 -0.101621 -16.6875 -9.04328 31.5385 -0.458529 -18.3771 -2.68158 5.68255e-010 -9.68113e-010 -3.14808e-010 9.8814e-010 -1.68007e-009 -5.38282e-010 5.68259e-010 -9.68112e-010 -3.14817e-010 7.73091 5.47488 0.417314 5.68255e-010 -9.68114e-010 -3.14804e-010 2.90554 0.965183 0.102902 5.68263e-010 -9.68113e-010 -3.14811e-010 10.2786 0.731801 0.0259123 5.68253e-010 -9.68111e-010 -3.14807e-010 2.22167 -0.733487 -0.20892 -1.63032e-015 -9.04389e-015 -8.22937e-014 -79.8323 25.5253 -12.1173 16.2083 -8.60577 -30.4734 0.0102823 2.98022 -0.419193 6.2201e-010 1.03474e-009 -3.16523e-011 1.07626e-009 1.79036e-009 -5.70209e-011 6.22006e-010 1.03474e-009 -3.16374e-011 -7.73091 5.47488 -0.417314 6.22004e-010 1.03473e-009 -3.16451e-011 -2.90554 0.965183 -0.102902 6.22004e-010 1.03474e-009 -3.1651e-011 -10.2786 0.731801 -0.0259123 6.22016e-010 1.03474e-009 -3.16529e-011 -2.22167 -0.733487 0.20892 -2.03217e-016 0 -3.88251e-019 8.58461 -6.94745 15.8659 -0.108612 29.0316 0.782065 -16.4374 -21.0904 -34.0278 2.03217e-016 0 3.88251e-019 -4.08413 -5.28675 -20.5835 0.140431 27.7623 -0.732919 12.9216 -18.2351 29.6212 
-150.723 84.3877 11.0445 -2.42136 4.01866 177.312 -1.05873 9.19737 2.22916 -0.24801 1.74898 0.850686 5.03019 9.76444 3.89292 -3.31624 -24.6431 6.46167 -0 0 0 -0 0 0 1.98466e-015 -6.73495e-016 -3.42702e-014 86.1486 18.3015 -0.283798 -16.3138 -8.87227 30.4871 -0.40735 -17.6538 -2.56549 1.24164e-011 -1.97585e-010 -3.42868e-010 2.65251e-011 -3.47997e-010 -5.93379e-010 1.24224e-011 -1.97584e-010 -3.42879e-010 7.73091 5.47488 0.417314 1.24178e-011 -1.97587e-010 -3.4286e-010 2.90554 0.965183 0.102902 1.24273e-011 -1.97585e-010 -3.4287e-010 10.2786 0.731801 0.0259123 1.24167e-011 -1.97583e-010 -3.42864e-010 2.22167 -0.733487 -0.20892 1.99695e-015 -6.66993e-016 -3.43645e-014 -76.9958 25.1847 -12.3133 15.4638 -8.10225 -28.6729 0.0156683 3.61806 -0.50915 1.64322e-010 4.66497e-010 1.67019e-010 2.86237e-010 8.09343e-010 2.88485e-010 1.64317e-010 4.66498e-010 1.67033e-010 -7.73091 5.47488 -0.417314 1.6432e-010 4.66496e-010 1.67024e-010 -2.90554 0.965183 -0.102902 1.64315e-010 4.66497e-010 1.67019e-010 -10.2786 0.731801 -0.0259123 1.6433e-010 4.66498e-010 1.67013e-010 -2.22167 -0.733487 0.20892 -2.03217e-016 0 -3.88251e-019 8.34446 -6.82492 15.2126 -0.0884188 27.9913 0.746549 -15.4344 -20.626 -32.699 2.03217e-016 0 3.88251e-019 -3.82506 -5.24455 -19.8904 0.120308 26.7554 -0.698178 12.0337 -17.7362 28.2649 
